# xmcd CD database file
# Copyright (C) 1993-1998 Ti Kan
#
# Track frame offsets:
#	183
#	18525
#	31740
#	48773
#	66705
#	86585
#	102770
#	116353
#	128890
#	138705
#	154085
#	168638
#	178688
#	192403
#	200435
#
# Disc length: 2922 seconds
#
# Revision: 1
# Processed by: cddbd v1.4b41PL1 Copyright (c) Steve Scherf et al.
# Submitted via: CDValet v3.01 - Copyright (c) 1997 Greg Leichner
#
DISCID=d20b680f
DTITLE=Lo Borges - Lo Borges
DYEAR=1900
DGENRE=
TTITLE0=O Trem Azul
TTITLE1=Paisagem Na Janela
TTITLE2=Tudo Que Voce Podia Ser
TTITLE3=Clube Da Esquina N' 2
TTITLE4=Vento De Maio
TTITLE5=Nuvem Cigana
TTITLE6=A Via-Lactea
TTITLE7=Chuva Na Montanha
TTITLE8=Voce Fica Melhor Assim
TTITLE9=Vida Nova
TTITLE10=Equatorial
TTITLE11=Canção Postal
TTITLE12=Todo Prazer
TTITLE13=Como O Machado
TTITLE14=Um Girassol Da Cor De Seu Cabelo
EXTD=
EXTT0=
EXTT1=
EXTT2=
EXTT3=
EXTT4=
EXTT5=
EXTT6=
EXTT7=
EXTT8=
EXTT9=
EXTT10=
EXTT11=
EXTT12=
EXTT13=
EXTT14=
PLAYORDER=
